# xmcd CD database file
#
# Track frame offsets:
#	183
#	12313
#	23820
#	33573
#	45470
#	58030
#	68770
#	77620
#	89838
#	100370
#	111970
#	124578
#	137408
#	148870
#	157378
#	170115
#
# Disc length: 2436 seconds
#
# Revision: 4
# Processed by: cddbd v1.5.2PL0 Copyright (c) Steve Scherf et al.
# Submitted via: jetAudio 7
#
DISCID=e4098210
DTITLE=Various Artist - Country Music Express Disc 2
DYEAR=1999
DGENRE=Country
TTITLE0=Funny Face
TTITLE1=Is There Something On Your Mind
TTITLE2=Ballad Of A Teenage Queen
TTITLE3=Letter To Heaven
TTITLE4=Reuben James
TTITLE5=Storybook Children
TTITLE6=Mean Old Greyhound Bus
TTITLE7=Stand By Your Man
TTITLE8=She Even Woke Me Up To Say Goodbye
TTITLE9=The Happiest Girl In The Whole USA
TTITLE10=Folsom Prison Blues
TTITLE11=The Old Country Church
TTITLE12=That'll Be The Day
TTITLE13=Abilene
TTITLE14=You've Got The Power
TTITLE15=I Just Don't Understand
EXTD=SUCCES2067CD-AAD
EXTT0=
EXTT1=
EXTT2=
EXTT3=
EXTT4=
EXTT5=
EXTT6=
EXTT7=
EXTT8=
EXTT9=
EXTT10=
EXTT11=
EXTT12=
EXTT13=
EXTT14=
EXTT15=
PLAYORDER=
